<?xml version="1.0" standalone="no"?><!DOCTYPE svg PUBLIC "-//W3C//DTD SVG 1.1//EN" "http://www.w3.org/Graphics/SVG/1.1/DTD/svg11.dtd"><svg t="1547437330401" class="icon" style="" viewBox="0 0 1024 1024" version="1.1" xmlns="http://www.w3.org/2000/svg" p-id="1988" xmlns:xlink="http://www.w3.org/1999/xlink" width="200" height="200"><defs><style type="text/css"></style></defs><path d="M512 0C229.216 0 0 229.216 0 512c0 282.768 229.216 512 512 512 282.752 0 512-229.232 512-512C1024 229.216 794.752 0 512 0zM512 992C246.896 992 32 777.088 32 512 32 246.896 246.896 32 512 32c265.056 0 480 214.896 480 480C992 777.088 777.056 992 512 992z" p-id="1989"></path><path d="M351.696 694.016c0 0 0.16 0.32 0.32 0.32 0-0.16 0-0.16 0-0.32L351.696 694.016z" p-id="1990"></path><path d="M565.776 736.576 566.272 736.576 565.776 736.416Z" p-id="1991"></path><path d="M743.52 433.152l14.208-80.576c7.504-1.872 12.864-8.688 12.176-16.64-0.768-8.8-8.528-15.328-17.328-14.56l-434.432 38-15.968-90.24-0.096 0.016 1.312 7.408c-1.424-8.064-5.92-15.584-13.152-20.672-7.248-5.072-15.856-6.72-23.92-5.296l-63.024 11.104c-8.704 1.536-14.512 9.84-12.976 18.544s9.84 14.512 18.544 12.976l47.344-8.352c4.032-0.704 8.336 0.112 11.952 2.656 3.632 2.528 5.872 6.304 6.592 10.336L340.128 668.8c1.264 7.136 4.944 13.92 10.944 18.96s13.312 7.488 20.576 7.488l0.144 0 0 0.032 330.832 0c7.328 0 14.688-2.48 20.704-7.6s9.68-11.968 10.88-19.2l32.848-199.264c1.488-8.944-0.848-18.448-7.168-25.904C755.44 438.08 749.664 434.752 743.52 433.152zM672.8 432l12.816-72.64 39.024-3.408L711.232 432 672.8 432zM323.712 391.024l328.896-28.768L640.32 432 330.976 432 323.712 391.024zM704.832 649.872c-0.592 3.616-2.416 7.024-5.424 9.6-3.008 2.544-6.704 3.792-10.352 3.792L385.296 663.264c-3.632 0-7.296-1.216-10.288-3.728-3.008-2.512-4.848-5.904-5.472-9.488l-29.584-167.248c-0.784-4.496 0.336-9.296 3.504-13.072S351.152 464 355.712 464l360.896 0c4.544 0 9.04 1.92 12.208 5.648 3.168 3.728 4.336 8.48 3.6 12.96L704.832 649.872z" p-id="1992"></path><path d="M389.296 709.872c-26.464 0-48 21.536-48 48s21.536 48 48 48 48-21.536 48-48S415.76 709.872 389.296 709.872zM389.296 773.872c-8.816 0-16-7.168-16-16s7.184-16 16-16 16 7.168 16 16S398.112 773.872 389.296 773.872z" p-id="1993"></path><path d="M678.432 709.872c-26.464 0-48.016 21.536-48.016 48s21.552 48 48.016 48c26.448 0 47.984-21.536 47.984-48S704.896 709.872 678.432 709.872zM678.432 773.872c-8.832 0-16.016-7.168-16.016-16s7.184-16 16.016-16c8.816 0 15.984 7.168 15.984 16S687.248 773.872 678.432 773.872z" p-id="1994"></path></svg>